<svg width="362" height="349" viewBox="0 0 362 349" fill="none" xmlns="http://www.w3.org/2000/svg">
<path d="M0 0H362V176.898H0V0Z" fill="white"/>
<path d="M362 176.898C362 199.499 357.317 221.878 348.221 242.758C339.125 263.639 325.793 282.611 308.985 298.592C292.178 314.574 272.225 327.251 250.265 335.9C228.305 344.548 204.768 349 180.999 349C157.23 349 133.693 344.548 111.733 335.9C89.7734 327.251 69.8201 314.574 53.0127 298.592C36.2053 282.611 22.8729 263.639 13.7768 242.758C4.68075 221.878 -2.07798e-06 199.499 0 176.898H362Z" fill="white"/>
</svg>
