<svg width="362" height="315" viewBox="0 0 362 315" fill="none" xmlns="http://www.w3.org/2000/svg">
<path d="M0 0H362V159.664H0V0Z" fill="white"/>
<path d="M362 159.664C362 180.063 357.317 200.262 348.221 219.109C339.125 237.955 325.793 255.079 308.985 269.503C292.178 283.927 272.225 295.369 250.265 303.176C228.305 310.982 204.768 315 180.999 315C157.23 315 133.693 310.982 111.733 303.176C89.7734 295.369 69.8201 283.927 53.0127 269.503C36.2053 255.079 22.8729 237.955 13.7768 219.109C4.68075 200.262 -2.07798e-06 180.063 0 159.664H362Z" fill="white"/>
</svg>
