<svg width="205" height="464" viewBox="0 0 205 464" fill="none" xmlns="http://www.w3.org/2000/svg">
<path d="M0 0H205V363L0 363V0Z" fill="white"/>
<path d="M205 363C205 376.772 202.348 386.54 197.197 399.263C192.046 411.986 184.496 423.547 174.978 433.285C165.46 443.023 154.16 450.747 141.725 456.017C129.289 461.288 115.96 464 102.499 464C89.039 464 75.7103 461.288 63.2744 456.017C50.8385 450.747 39.539 443.023 30.021 433.285C20.503 423.547 12.9529 411.986 7.80181 399.263C2.6507 386.54 -1.17675e-06 376.772 0 363L205 363Z" fill="white"/>
</svg>
