<svg width="50" height="50" viewBox="0 0 50 50" fill="none" xmlns="http://www.w3.org/2000/svg">
<rect width="50" height="50" rx="5" fill="#D9D9D9"/>
<path d="M21.2222 21.4206C21.2222 21.1465 21.2762 20.875 21.3811 20.6218C21.486 20.3686 21.6397 20.1385 21.8336 19.9447C22.0274 19.7508 22.2575 19.5971 22.5107 19.4922C22.7639 19.3873 23.0353 19.3333 23.3094 19.3333H26.6906C26.9647 19.3333 27.2361 19.3873 27.4893 19.4922C27.7425 19.5971 27.9726 19.7508 28.1664 19.9447C28.3603 20.1385 28.514 20.3686 28.6189 20.6218C28.7238 20.875 28.7778 21.1465 28.7778 21.4206V39.9128C28.7778 40.4663 28.5579 40.9972 28.1664 41.3887C27.775 41.7801 27.2441 42 26.6906 42H23.3094C22.7559 42 22.225 41.7801 21.8336 41.3887C21.4421 40.9972 21.2222 40.4663 21.2222 39.9128V21.4206ZM34.4444 10.0872C34.4444 9.81312 34.4984 9.54171 34.6033 9.28848C34.7082 9.03524 34.862 8.80515 35.0558 8.61133C35.4472 8.2199 35.9781 8 36.5317 8H39.9128C40.1869 8 40.4583 8.05399 40.7115 8.15888C40.9648 8.26377 41.1949 8.41752 41.3887 8.61133C41.5825 8.80515 41.7362 9.03524 41.8411 9.28848C41.946 9.54171 42 9.81312 42 10.0872V39.9128C42 40.4663 41.7801 40.9972 41.3887 41.3887C40.9972 41.7801 40.4663 42 39.9128 42H36.5317C35.9781 42 35.4472 41.7801 35.0558 41.3887C34.6643 40.9972 34.4444 40.4663 34.4444 39.9128V10.0872ZM8 38.2222C8 39.2241 8.39801 40.185 9.10649 40.8935C9.81496 41.602 10.7758 42 11.7778 42C12.7797 42 13.7406 41.602 14.4491 40.8935C15.1575 40.185 15.5556 39.2241 15.5556 38.2222C15.5556 37.2203 15.1575 36.2594 14.4491 35.5509C13.7406 34.8425 12.7797 34.4444 11.7778 34.4444C10.7758 34.4444 9.81496 34.8425 9.10649 35.5509C8.39801 36.2594 8 37.2203 8 38.2222Z" fill="black" stroke="black" stroke-width="2" stroke-linecap="round" stroke-linejoin="round"/>
</svg>
